# xmcd
#
# Track frame offsets:
#	150
#	23327
#	41206
#	62345
#	83752
#	110808
#	132174
#	151264
#	166159
#	197247
#	206355
#	221740
#	234122
#	253261
#	260962
#	268663
#	278119
#	297593
#	310433
#	322564
#
# Disc length: 4662 seconds
#
# Revision: 0
# Processed by: cddbd v1.4PL0 Copyright (c) Steve Scherf et al.
# Submitted via: dBpowerAMP V4.0
#
DISCID=23123414
DTITLE=Babado Novo - Ao Vivo em Mossoró
DYEAR=2000
DGENRE=Country
TTITLE0=Cai Fora
TTITLE1=Selva Branca
TTITLE2=Peixinho
TTITLE3=Mulateiro Bunde
TTITLE4=Amor Perfeito
TTITLE5=Diga que Valeu
TTITLE6=Reggae Jamaicano
TTITLE7=Perdido de Amor
TTITLE8=Quero te Encontrar
TTITLE9=Não Chores Mais
TTITLE10=Merengeira Siga-me
TTITLE11=Fissura
TTITLE12=Segure o Tchan
TTITLE13=Xote das Meninas
TTITLE14=Esperando na Janela
TTITLE15=Lembrança de um Beijo
TTITLE16=Prove do Meu Love
TTITLE17=Amor a Prova
TTITLE18=Faraó
TTITLE19=Amor Perfeito
EXTD=Babado Novo Ao Vivo em Mossoró
EXTT0=
EXTT1=
EXTT2=
EXTT3=
EXTT4=
EXTT5=
EXTT6=
EXTT7=
EXTT8=
EXTT9=
EXTT10=
EXTT11=
EXTT12=
EXTT13=
EXTT14=
EXTT15=
EXTT16=
EXTT17=
EXTT18=
EXTT19=
PLAYORDER=
